<svg width="40" height="40" viewBox="0 0 40 40" fill="none" xmlns="http://www.w3.org/2000/svg">
<g clip-path="url(#clip0_1_2)">
<g style="mix-blend-mode:multiply">
<path d="M32 0H8C3.58172 0 0 3.58172 0 8V32C0 36.4183 3.58172 40 8 40H32C36.4183 40 40 36.4183 40 32V8C40 3.58172 36.4183 0 32 0Z" fill="#EBECF0"/>
<path fill-rule="evenodd" clip-rule="evenodd" d="M13.2929 13.2929C13.6834 12.9024 14.3166 12.9024 14.7071 13.2929L20 18.5858L25.2929 13.2929C25.6834 12.9024 26.3166 12.9024 26.7071 13.2929C27.0976 13.6834 27.0976 14.3166 26.7071 14.7071L21.4142 20L26.7071 25.2929C27.0976 25.6834 27.0976 26.3166 26.7071 26.7071C26.3166 27.0976 25.6834 27.0976 25.2929 26.7071L20 21.4142L14.7071 26.7071C14.3166 27.0976 13.6834 27.0976 13.2929 26.7071C12.9024 26.3166 12.9024 25.6834 13.2929 25.2929L18.5858 20L13.2929 14.7071C12.9024 14.3166 12.9024 13.6834 13.2929 13.2929Z" fill="#67798E"/>
</g>
</g>
<defs>
<clipPath id="clip0_1_2">
<rect width="40" height="40" fill="white"/>
</clipPath>
</defs>
</svg>
